# 3ds Max Wavefront OBJ Exporter v0.97b - (c)2007 guruware
# File Created: 24.06.2017 15:18:08

mtllib transductBase.mtl

#
# object Tube003
#

v  0.3736 0.9000 0.0381
v  0.3087 0.9600 0.0381
v  0.6913 1.0000 0.0381
v  0.6264 0.9000 0.0381
v  0.3087 1.0000 0.0381
v  0.3622 1.0000 0.1674
v  0.6378 1.0000 0.1674
v  0.5728 0.9000 0.1674
v  0.6378 0.9600 0.1674
v  0.3622 0.9600 0.1674
v  0.4272 0.9000 0.1674
v  0.7373 0.9000 0.0840
v  0.6913 0.9600 0.0381
v  0.9619 1.0000 0.3087
v  0.9160 0.9000 0.2627
v  0.8326 1.0000 0.3622
v  0.7867 0.9000 0.3163
v  0.8326 0.9600 0.3622
v  0.6837 0.9000 0.2133
v  0.9619 0.9000 0.3736
v  0.9619 0.9600 0.3087
v  0.9619 1.0000 0.6913
v  0.9619 0.9000 0.6264
v  0.8326 1.0000 0.6378
v  0.8326 0.9000 0.5728
v  0.8326 0.9600 0.6378
v  0.8326 0.9000 0.4272
v  0.9160 0.9000 0.7373
v  0.9619 0.9600 0.6913
v  0.6913 1.0000 0.9619
v  0.7373 0.9000 0.9160
v  0.6378 1.0000 0.8326
v  0.6837 0.9000 0.7867
v  0.6378 0.9600 0.8326
v  0.7867 0.9000 0.6837
v  0.6264 0.9000 0.9619
v  0.6913 0.9600 0.9619
v  0.3087 1.0000 0.9619
v  0.3736 0.9000 0.9619
v  0.3622 1.0000 0.8326
v  0.4272 0.9000 0.8326
v  0.3622 0.9600 0.8326
v  0.5728 0.9000 0.8326
v  0.2627 0.9000 0.9160
v  0.3087 0.9600 0.9619
v  0.0381 1.0000 0.6913
v  0.0840 0.9000 0.7373
v  0.1674 1.0000 0.6378
v  0.2133 0.9000 0.6837
v  0.1674 0.9600 0.6378
v  0.3163 0.9000 0.7867
v  0.0381 0.9000 0.6264
v  0.0381 0.9600 0.6913
v  0.0381 1.0000 0.3087
v  0.0381 0.9000 0.3736
v  0.1674 1.0000 0.3622
v  0.1674 0.9000 0.4272
v  0.1674 0.9600 0.3622
v  0.1674 0.9000 0.5728
v  0.0840 0.9000 0.2627
v  0.0381 0.9600 0.3087
v  0.2627 0.9000 0.0840
v  0.3163 0.9000 0.2133
v  0.2133 0.9000 0.3163
v  0.3087 0.0000 0.0381
v  0.6264 0.1000 0.0381
v  0.6913 0.0400 0.0381
v  0.6913 0.0000 0.0381
v  0.3087 0.0400 0.0381
v  0.3736 0.1000 0.0381
v  0.4272 0.1000 0.1674
v  0.3622 0.0400 0.1674
v  0.6378 0.0000 0.1674
v  0.5728 0.1000 0.1674
v  0.3622 0.0000 0.1674
v  0.9160 0.1000 0.2627
v  0.9619 0.0400 0.3087
v  0.9619 0.0000 0.3087
v  0.7373 0.1000 0.0840
v  0.6837 0.1000 0.2133
v  0.7867 0.1000 0.3163
v  0.6378 0.0400 0.1674
v  0.8326 0.0000 0.3622
v  0.9619 0.1000 0.6264
v  0.9619 0.0400 0.6913
v  0.9619 0.0000 0.6913
v  0.9619 0.1000 0.3736
v  0.8326 0.1000 0.4272
v  0.8326 0.0400 0.3622
v  0.8326 0.0000 0.6378
v  0.8326 0.1000 0.5728
v  0.7373 0.1000 0.9160
v  0.6913 0.0400 0.9619
v  0.6913 0.0000 0.9619
v  0.9160 0.1000 0.7373
v  0.7867 0.1000 0.6837
v  0.6837 0.1000 0.7867
v  0.8326 0.0400 0.6378
v  0.6378 0.0000 0.8326
v  0.3736 0.1000 0.9619
v  0.3087 0.0400 0.9619
v  0.3087 0.0000 0.9619
v  0.6264 0.1000 0.9619
v  0.5728 0.1000 0.8326
v  0.6378 0.0400 0.8326
v  0.3622 0.0000 0.8326
v  0.4272 0.1000 0.8326
v  0.0840 0.1000 0.7373
v  0.0381 0.0400 0.6913
v  0.0381 0.0000 0.6913
v  0.2627 0.1000 0.9160
v  0.3163 0.1000 0.7867
v  0.2133 0.1000 0.6837
v  0.3622 0.0400 0.8326
v  0.1674 0.0000 0.6378
v  0.0381 0.1000 0.3736
v  0.0381 0.0400 0.3087
v  0.0381 0.0000 0.3087
v  0.0381 0.1000 0.6264
v  0.1674 0.1000 0.5728
v  0.1674 0.0400 0.6378
v  0.1674 0.0000 0.3622
v  0.1674 0.1000 0.4272
v  0.2627 0.1000 0.0840
v  0.0840 0.1000 0.2627
v  0.2133 0.1000 0.3163
v  0.3163 0.1000 0.2133
v  0.1674 0.0400 0.3622
# 128 vertices

vn -0.0000 -0.0000 -1.0000
vn -0.3827 0.0000 -0.9239
vn 0.3827 -0.0000 -0.9239
vn -0.3827 -0.0000 -0.9239
vn 0.0000 1.0000 -0.0000
vn 0.3827 -0.0000 0.9239
vn 0.0000 0.0000 1.0000
vn -0.3827 0.0000 0.9239
vn 0.3827 0.0000 0.9239
vn 0.0000 -0.0000 1.0000
vn 0.7071 -0.0000 -0.7071
vn 0.9239 0.0000 -0.3827
vn 0.7071 0.0000 -0.7071
vn -0.7071 -0.0000 0.7071
vn -0.9239 -0.0000 0.3827
vn -0.7071 0.0000 0.7071
vn 0.0000 -1.0000 -0.0000
vn 1.0000 0.0000 -0.0000
vn 0.9239 -0.0000 0.3827
vn 1.0000 -0.0000 -0.0000
vn -1.0000 0.0000 0.0000
vn -0.9239 0.0000 -0.3827
vn -1.0000 -0.0000 -0.0000
vn 0.7071 -0.0000 0.7071
vn 0.7071 0.0000 0.7071
vn -0.7071 -0.0000 -0.7071
vn -0.7071 0.0000 -0.7071
vn -0.3827 -0.0000 0.9239
vn -0.0000 -0.0000 1.0000
vn 0.0000 0.0000 -1.0000
vn 0.3827 0.0000 -0.9239
vn 0.0000 -0.0000 -1.0000
vn 0.9239 -0.0000 -0.3827
vn -1.0000 0.0000 -0.0000
vn -0.9239 0.0000 0.3827
vn -0.9239 -0.0000 -0.3827
vn 0.9239 0.0000 0.3827
vn 1.0000 -0.0000 0.0000
vn -0.3536 -0.3827 -0.8536
vn 0.3536 0.3827 0.8536
vn 0.3536 -0.3827 -0.8536
vn -0.3536 0.3827 0.8536
vn 0.8536 -0.3827 -0.3536
vn -0.8536 0.3827 0.3536
vn 0.8536 -0.3827 0.3536
vn -0.8536 0.3827 -0.3536
vn 0.3536 -0.3827 0.8536
vn -0.3536 0.3827 -0.8536
vn -0.3536 -0.3827 0.8536
vn 0.3536 0.3827 -0.8536
vn -0.8536 -0.3827 0.3536
vn 0.8536 0.3827 -0.3536
vn -0.8536 -0.3827 -0.3536
vn 0.8536 0.3827 0.3536
vn -0.0000 0.0000 -1.0000
vn 1.0000 0.0000 0.0000
vn -0.0000 0.0000 1.0000
# 57 vertex normals

vt 0.4400 0.9000 0.9751
vt 0.5000 0.9600 1.0000
vt 0.1464 1.0000 0.8536
vt 0.2064 0.9000 0.8784
vt 0.5000 1.0000 1.0000
vt 0.5000 0.8600 1.0000
vt 0.7546 0.7546 1.0000
vt 0.8536 0.8536 1.0000
vt 0.5000 1.0000 0.8600
vt 0.6946 0.9000 0.7794
vt 0.7546 0.9600 0.7546
vt 0.7546 1.0000 0.7546
vt 0.5000 0.9600 0.8600
vt 0.5600 0.9000 0.8351
vt 0.7936 0.9000 0.8784
vt 0.8536 0.9600 0.8536
vt 0.5600 0.9000 0.9751
vt 0.8536 1.0000 0.8536
vt 0.8600 0.5000 1.0000
vt 1.0000 0.5000 1.0000
vt 0.2454 1.0000 0.7546
vt 0.4400 0.9000 0.8351
vt 0.2454 0.9600 0.7546
vt 0.3054 0.9000 0.7794
vt 0.2206 0.6946 0.9000
vt 0.1216 0.7936 0.9000
vt 0.0249 0.5600 0.9000
vt 0.1649 0.5600 0.9000
vt 0.7546 0.2454 1.0000
vt 0.8536 0.1464 1.0000
vt 0.7936 0.9000 0.1216
vt 0.8536 0.9600 0.1464
vt 0.5000 1.0000 0.0000
vt 0.5600 0.9000 0.0249
vt 0.8536 1.0000 0.1464
vt 0.5000 0.1400 1.0000
vt 0.5000 0.0000 1.0000
vt 0.2454 1.0000 0.2454
vt 0.4400 0.9000 0.1649
vt 0.5000 0.9600 0.1400
vt 0.5000 1.0000 0.1400
vt 0.2454 0.9600 0.2454
vt 0.3054 0.9000 0.2206
vt 0.3054 0.2206 0.9000
vt 0.2064 0.1216 0.9000
vt 0.4400 0.0249 0.9000
vt 0.4400 0.1649 0.9000
vt 0.4400 0.9000 0.0249
vt 0.5000 0.9600 0.0000
vt 0.1464 1.0000 0.1464
vt 0.2064 0.9000 0.1216
vt 0.2454 0.2454 1.0000
vt 0.1464 0.1464 1.0000
vt 0.6946 0.9000 0.2206
vt 0.7546 0.9600 0.2454
vt 0.7546 1.0000 0.2454
vt 0.5600 0.9000 0.1649
vt 0.1400 0.5000 1.0000
vt 0.0000 0.5000 1.0000
vt 0.7794 0.3054 0.9000
vt 0.8784 0.2064 0.9000
vt 0.9751 0.4400 0.9000
vt 0.8351 0.4400 0.9000
vt 0.2454 0.7546 1.0000
vt 0.1464 0.8536 1.0000
vt 0.6946 0.7794 0.9000
vt 0.7936 0.8784 0.9000
vt 0.5600 0.9751 0.9000
vt 0.5600 0.8351 0.9000
vt 0.8784 0.9000 0.7936
vt 0.2206 0.9000 0.6946
vt 0.8784 0.9000 0.2064
vt 0.2206 0.9000 0.3054
vt 0.1464 0.9600 0.8536
vt 0.1464 0.9600 0.1464
vt 0.2064 0.8784 0.9000
vt 0.3054 0.7794 0.9000
vt 0.4400 0.9751 0.9000
vt 0.4400 0.8351 0.9000
vt 0.0249 0.4400 0.9000
vt 0.1649 0.4400 0.9000
vt 0.1216 0.2064 0.9000
vt 0.2206 0.3054 0.9000
vt 0.5600 0.0249 0.9000
vt 0.5600 0.1649 0.9000
vt 0.7936 0.1216 0.9000
vt 0.6946 0.2206 0.9000
vt 0.9751 0.5600 0.9000
vt 0.8351 0.5600 0.9000
vt 0.8784 0.7936 0.9000
vt 0.7794 0.6946 0.9000
vt 0.2064 0.1000 0.8784
vt 0.1464 0.0400 0.8536
vt 0.1464 0.0000 0.8536
vt 0.5000 0.0400 1.0000
vt 0.4400 0.1000 0.9751
vt 0.5600 0.1000 0.8351
vt 0.5000 0.0400 0.8600
vt 0.7546 0.0000 0.7546
vt 0.6946 0.1000 0.7794
vt 0.5000 0.0000 0.8600
vt 0.5000 0.8600 0.0000
vt 0.1464 0.8536 0.0000
vt 0.2454 0.7546 0.0000
vt 0.8536 0.0000 0.8536
vt 0.5600 0.1000 0.9751
vt 0.8536 0.0400 0.8536
vt 0.7936 0.1000 0.8784
vt 0.8784 0.7936 0.1000
vt 0.7794 0.6946 0.1000
vt 0.8351 0.5600 0.1000
vt 0.9751 0.5600 0.1000
vt 0.3054 0.1000 0.7794
vt 0.2454 0.0400 0.7546
vt 0.4400 0.1000 0.8351
vt 0.2454 0.0000 0.7546
vt 0.0000 0.5000 0.0000
vt 0.1400 0.5000 0.0000
vt 0.1464 0.1464 0.0000
vt 0.2454 0.2454 0.0000
vt 0.8536 0.0000 0.1464
vt 0.5600 0.1000 0.0249
vt 0.5000 0.0400 0.0000
vt 0.5000 0.0000 0.0000
vt 0.8536 0.0400 0.1464
vt 0.7936 0.1000 0.1216
vt 0.7936 0.1216 0.1000
vt 0.6946 0.2206 0.1000
vt 0.5600 0.1649 0.1000
vt 0.5600 0.0249 0.1000
vt 0.3054 0.1000 0.2206
vt 0.2454 0.0400 0.2454
vt 0.5000 0.0000 0.1400
vt 0.4400 0.1000 0.1649
vt 0.2454 0.0000 0.2454
vt 0.5000 0.1400 0.0000
vt 0.2064 0.1000 0.1216
vt 0.1464 0.0400 0.1464
vt 0.1464 0.0000 0.1464
vt 0.4400 0.1000 0.0249
vt 0.5600 0.1000 0.1649
vt 0.5000 0.0400 0.1400
vt 0.7546 0.0000 0.2454
vt 0.6946 0.1000 0.2206
vt 0.8536 0.1464 0.0000
vt 0.7546 0.2454 0.0000
vt 0.1216 0.2064 0.1000
vt 0.2206 0.3054 0.1000
vt 0.1649 0.4400 0.1000
vt 0.0249 0.4400 0.1000
vt 1.0000 0.5000 0.0000
vt 0.8600 0.5000 0.0000
vt 0.8536 0.8536 0.0000
vt 0.7546 0.7546 0.0000
vt 0.2064 0.8784 0.1000
vt 0.3054 0.7794 0.1000
vt 0.4400 0.8351 0.1000
vt 0.4400 0.9751 0.1000
vt 0.8784 0.1000 0.7936
vt 0.2206 0.1000 0.6946
vt 0.8784 0.1000 0.2064
vt 0.2206 0.1000 0.3054
vt 0.7546 0.0400 0.7546
vt 0.7546 0.0400 0.2454
vt 0.7936 0.8784 0.1000
vt 0.6946 0.7794 0.1000
vt 0.5600 0.9751 0.1000
vt 0.5600 0.8351 0.1000
vt 0.9751 0.4400 0.1000
vt 0.8351 0.4400 0.1000
vt 0.8784 0.2064 0.1000
vt 0.7794 0.3054 0.1000
vt 0.4400 0.0249 0.1000
vt 0.4400 0.1649 0.1000
vt 0.2064 0.1216 0.1000
vt 0.3054 0.2206 0.1000
vt 0.0249 0.5600 0.1000
vt 0.1649 0.5600 0.1000
vt 0.1216 0.7936 0.1000
vt 0.2206 0.6946 0.1000
vt 0.0249 0.1000 0.5600
vt 0.1649 0.1000 0.5600
vt 0.1649 0.9000 0.5600
vt 0.0249 0.9000 0.5600
vt 0.0249 0.1000 0.4400
vt 0.1649 0.1000 0.4400
vt 0.1649 0.9000 0.4400
vt 0.0249 0.9000 0.4400
# 188 texture coords

g Tube003
usemtl Material__46
f 1/1/1 2/2/2 3/3/3 4/4/1 
f 2/2/2 5/5/4 3/3/3 
f 5/5/5 6/6/5 7/7/5 3/8/5 
f 6/9/6 8/10/7 9/11/8 7/12/8 
f 6/9/6 10/13/9 11/14/10 8/10/7 
f 12/15/11 13/16/3 14/5/12 15/17/13 
f 13/16/3 3/18/3 14/5/12 
f 3/8/5 7/7/5 16/19/5 14/20/5 
f 7/21/8 17/22/14 18/13/15 16/9/15 
f 7/21/8 9/23/8 19/24/16 17/22/14 
f 19/25/17 12/26/17 15/27/17 17/28/17 
f 20/1/18 21/2/12 22/3/19 23/4/20 
f 21/2/12 14/5/12 22/3/19 
f 14/20/5 16/19/5 24/29/5 22/30/5 
f 16/9/15 25/10/21 26/11/22 24/12/22 
f 16/9/15 18/13/15 27/14/23 25/10/21 
f 28/31/24 29/32/19 30/33/6 31/34/25 
f 29/32/19 22/35/19 30/33/6 
f 22/30/5 24/29/5 32/36/5 30/37/5 
f 24/38/22 33/39/26 34/40/4 32/41/4 
f 24/38/22 26/42/22 35/43/27 33/39/26 
f 35/44/17 28/45/17 31/46/17 33/47/17 
f 36/48/7 37/49/9 38/50/28 39/51/29 
f 37/49/9 30/33/6 38/50/28 
f 30/37/5 32/36/5 40/52/5 38/53/5 
f 32/41/4 41/54/30 42/55/31 40/56/31 
f 32/41/4 34/40/4 43/57/32 41/54/30 
f 44/31/14 45/32/28 46/33/15 47/34/14 
f 45/32/28 38/35/28 46/33/15 
f 38/53/5 40/52/5 48/58/5 46/59/5 
f 40/38/31 49/39/13 50/40/12 48/41/33 
f 40/38/31 42/42/31 51/43/13 49/39/13 
f 51/60/17 44/61/17 47/62/17 49/63/17 
f 52/48/34 53/49/35 54/50/36 55/51/23 
f 53/49/35 46/33/15 54/50/36 
f 46/59/5 48/58/5 56/64/5 54/65/5 
f 48/41/33 57/54/18 58/55/37 56/56/19 
f 48/41/33 50/40/12 59/57/38 57/54/18 
f 60/15/26 61/16/22 5/5/4 62/17/26 
f 61/16/22 54/18/36 5/5/4 
f 54/65/5 56/64/5 6/6/5 5/5/5 
f 56/21/19 63/22/25 10/13/9 6/9/6 
f 56/21/19 58/23/37 64/24/24 63/22/25 
f 64/66/17 60/67/17 62/68/17 63/69/17 
f 1/1/39 62/17/39 2/2/39 
f 10/13/40 63/22/40 11/14/40 
f 13/16/41 12/15/41 4/70/41 
f 8/71/42 19/24/42 9/23/42 
f 21/2/43 20/1/43 15/17/43 
f 17/22/44 27/14/44 18/13/44 
f 29/32/45 28/31/45 23/72/45 
f 25/73/46 35/43/46 26/42/46 
f 37/49/47 36/48/47 31/34/47 
f 33/39/48 43/57/48 34/40/48 
f 45/32/49 44/31/49 39/72/49 
f 41/73/50 51/43/50 42/42/50 
f 53/49/51 52/48/51 47/34/51 
f 49/39/52 59/57/52 50/40/52 
f 61/16/53 60/15/53 55/70/53 
f 57/71/54 64/24/54 58/23/54 
f 4/4/1 3/3/3 13/74/3 
f 15/17/13 14/5/12 21/2/12 
f 23/4/20 22/3/19 29/74/19 
f 31/34/25 30/33/6 37/49/9 
f 39/51/29 38/50/28 45/75/28 
f 47/34/14 46/33/15 53/49/35 
f 55/51/23 54/50/36 61/75/22 
f 62/17/26 5/5/4 2/2/2 
f 4/76/17 12/26/17 19/25/17 8/77/17 
f 62/68/17 1/78/17 11/79/17 63/69/17 
f 15/27/17 20/80/17 27/81/17 17/28/17 
f 23/82/17 28/45/17 35/44/17 25/83/17 
f 31/46/17 36/84/17 43/85/17 33/47/17 
f 39/86/17 44/61/17 51/60/17 41/87/17 
f 47/62/17 52/88/17 59/89/17 49/63/17 
f 55/90/17 60/67/17 64/66/17 57/91/17 
f 65/37/2 66/92/55 67/93/31 68/94/3 
f 65/37/2 69/95/2 70/96/30 66/92/55 
f 71/97/7 72/98/9 73/99/28 74/100/10 
f 72/98/9 75/101/6 73/99/28 
f 75/102/17 65/33/17 68/103/17 73/104/17 
f 68/105/3 76/106/11 77/95/33 78/37/12 
f 68/105/3 67/107/31 79/108/13 76/106/11 
f 79/109/5 80/110/5 81/111/5 76/112/5 
f 80/113/14 82/114/28 83/101/35 81/115/16 
f 82/114/28 73/116/28 83/101/35 
f 73/104/17 68/103/17 78/117/17 83/118/17 
f 78/37/12 84/92/18 85/93/37 86/94/19 
f 78/37/12 77/95/33 87/96/18 84/92/18 
f 88/97/21 89/98/35 90/99/36 91/100/23 
f 89/98/35 83/101/35 90/99/36 
f 83/118/17 78/117/17 86/119/17 90/120/17 
f 86/121/19 92/122/24 93/123/6 94/124/9 
f 86/121/19 85/125/37 95/126/25 92/122/24 
f 95/127/5 96/128/5 97/129/5 92/130/5 
f 96/131/26 98/132/36 99/133/2 97/134/27 
f 98/132/36 90/135/36 99/133/2 
f 90/120/17 86/119/17 94/124/17 99/136/17 
f 94/124/9 100/137/7 101/138/8 102/139/8 
f 94/124/9 93/123/6 103/140/7 100/137/7 
f 104/141/30 105/142/2 106/143/3 107/144/32 
f 105/142/2 99/133/2 106/143/3 
f 99/136/17 94/124/17 102/145/17 106/146/17 
f 102/121/8 108/122/16 109/123/35 110/124/15 
f 102/121/8 101/125/8 111/126/16 108/122/16 
f 111/147/5 112/148/5 113/149/5 108/150/5 
f 112/131/11 114/132/3 115/133/12 113/134/13 
f 114/132/3 106/135/3 115/133/12 
f 106/146/17 102/145/17 110/151/17 115/152/17 
f 110/124/15 116/137/34 117/138/22 118/139/36 
f 110/124/15 109/123/35 119/140/23 116/137/34 
f 120/141/56 121/142/12 122/143/19 123/144/38 
f 121/142/12 115/133/12 122/143/19 
f 115/152/17 110/151/17 118/153/17 122/154/17 
f 118/105/36 124/106/27 69/95/2 65/37/2 
f 118/105/36 117/107/22 125/108/26 124/106/27 
f 125/155/5 126/156/5 127/157/5 124/158/5 
f 126/113/25 128/114/37 75/101/6 127/115/24 
f 128/114/37 122/116/19 75/101/6 
f 122/154/17 118/153/17 65/33/17 75/102/17 
f 69/95/48 124/106/48 70/96/48 
f 127/115/47 72/98/47 71/97/47 
f 66/159/50 79/108/50 67/107/50 
f 82/114/49 80/113/49 74/160/49 
f 76/106/52 87/96/52 77/95/52 
f 89/98/51 88/97/51 81/115/51 
f 84/161/54 95/126/54 85/125/54 
f 98/132/53 96/131/53 91/162/53 
f 92/122/40 103/140/40 93/123/40 
f 105/142/39 104/141/39 97/134/39 
f 100/161/42 111/126/42 101/125/42 
f 114/132/41 112/131/41 107/162/41 
f 108/122/44 119/140/44 109/123/44 
f 121/142/43 120/141/43 113/134/43 
f 116/159/46 125/108/46 117/107/46 
f 128/114/45 126/113/45 123/160/45 
f 74/100/10 73/99/28 82/163/28 
f 81/115/16 83/101/35 89/98/35 
f 91/100/23 90/99/36 98/163/36 
f 97/134/27 99/133/2 105/142/2 
f 107/144/32 106/143/3 114/164/3 
f 113/134/13 115/133/12 121/142/12 
f 123/144/38 122/143/19 128/164/37 
f 127/115/24 75/101/6 72/98/9 
f 79/109/5 66/165/5 74/166/5 80/110/5 
f 70/167/5 124/158/5 127/157/5 71/168/5 
f 87/169/5 76/112/5 81/111/5 88/170/5 
f 95/127/5 84/171/5 91/172/5 96/128/5 
f 103/173/5 92/130/5 97/129/5 104/174/5 
f 111/147/5 100/175/5 107/176/5 112/148/5 
f 119/177/5 108/150/5 113/149/5 120/178/5 
f 125/155/5 116/179/5 123/180/5 126/156/5 
f 66/92/30 70/96/30 1/1/30 4/4/30 
f 74/100/37 66/108/37 4/15/37 8/10/37 
f 70/181/35 71/182/35 11/183/35 1/184/35 
f 71/97/7 74/100/7 8/10/7 11/14/7 
f 84/92/18 87/96/18 20/1/18 23/4/18 
f 91/100/8 84/108/8 23/15/8 25/10/8 
f 87/185/2 88/186/2 27/187/2 20/188/2 
f 88/97/34 91/100/34 25/10/34 27/14/34 
f 100/137/57 103/140/57 36/48/57 39/51/57 
f 107/144/22 100/126/22 39/31/22 41/54/22 
f 103/185/12 104/186/12 43/187/12 36/188/12 
f 104/141/30 107/144/30 41/54/30 43/57/30 
f 116/137/34 119/140/34 52/48/34 55/51/34 
f 123/144/31 116/126/31 55/31/31 57/54/31 
f 119/181/9 120/182/9 59/183/9 52/184/9 
f 120/141/56 123/144/56 57/54/56 59/57/56 
# 104 polygons - 64 triangles

