# 3ds Max Wavefront OBJ Exporter v0.97b - (c)2007 guruware
# File Created: 24.06.2017 18:46:23

mtllib transductTrans.mtl

#
# object Tube001
#

v  0.5000 0.0000 0.0500
v  0.5000 0.9000 0.0500
v  0.8182 0.9000 0.1818
v  0.8182 0.0000 0.1818
v  0.5000 0.9000 0.1000
v  0.5000 0.0000 0.1000
v  0.7828 0.0000 0.2172
v  0.7828 0.9000 0.2172
v  0.9500 0.9000 0.5000
v  0.9500 0.0000 0.5000
v  0.9000 0.0000 0.5000
v  0.9000 0.9000 0.5000
v  0.8182 0.9000 0.8182
v  0.8182 0.0000 0.8182
v  0.7828 0.0000 0.7828
v  0.7828 0.9000 0.7828
v  0.5000 0.9000 0.9500
v  0.5000 0.0000 0.9500
v  0.5000 0.0000 0.9000
v  0.5000 0.9000 0.9000
v  0.1818 0.9000 0.8182
v  0.1818 0.0000 0.8182
v  0.2172 0.0000 0.7828
v  0.2172 0.9000 0.7828
v  0.0500 0.9000 0.5000
v  0.0500 0.0000 0.5000
v  0.1000 0.0000 0.5000
v  0.1000 0.9000 0.5000
v  0.1818 0.9000 0.1818
v  0.1818 0.0000 0.1818
v  0.2172 0.0000 0.2172
v  0.2172 0.9000 0.2172
# 32 vertices

vn 0.0000 0.0000 -1.0000
vn 0.7071 0.0000 -0.7071
vn 0.0000 0.0000 1.0000
vn -0.7071 0.0000 0.7071
vn 1.0000 0.0000 -0.0000
vn -1.0000 0.0000 -0.0000
vn 0.7071 0.0000 0.7071
vn -0.7071 0.0000 -0.7071
vn -0.0000 0.0000 1.0000
vn 1.0000 0.0000 0.0000
# 10 vertex normals

vt 0.5000 0.0000 1.0000
vt 0.5000 1.0000 1.0000
vt 0.1464 1.0000 0.8536
vt 0.1464 0.0000 0.8536
vt 0.5000 1.0000 0.9444
vt 0.5000 0.0000 0.9444
vt 0.8143 0.0000 0.8143
vt 0.8143 1.0000 0.8143
vt 0.8536 0.0000 0.8536
vt 0.8536 1.0000 0.8536
vt 0.1857 1.0000 0.8143
vt 0.1857 0.0000 0.8143
vt 0.8536 0.0000 0.1464
vt 0.8536 1.0000 0.1464
vt 0.5000 1.0000 0.0000
vt 0.5000 0.0000 0.0000
vt 0.1857 1.0000 0.1857
vt 0.1857 0.0000 0.1857
vt 0.5000 0.0000 0.0556
vt 0.5000 1.0000 0.0556
vt 0.1464 1.0000 0.1464
vt 0.1464 0.0000 0.1464
vt 0.8143 0.0000 0.1857
vt 0.8143 1.0000 0.1857
# 24 texture coords

g Tube001
usemtl Material__47
f 1/1/1 2/2/1 3/3/2 4/4/2 
f 5/5/3 6/6/3 7/7/4 8/8/4 
f 4/9/2 3/10/2 9/2/5 10/1/5 
f 8/11/4 7/12/4 11/6/6 12/5/6 
f 10/1/5 9/2/5 13/3/7 14/4/7 
f 12/5/6 11/6/6 15/7/8 16/8/8 
f 14/13/7 13/14/7 17/15/9 18/16/9 
f 16/17/8 15/18/8 19/19/1 20/20/1 
f 18/16/9 17/15/9 21/21/4 22/22/4 
f 20/20/1 19/19/1 23/23/2 24/24/2 
f 22/13/4 21/14/4 25/15/6 26/16/6 
f 24/17/2 23/18/2 27/19/10 28/20/10 
f 26/16/6 25/15/6 29/21/8 30/22/8 
f 28/20/10 27/19/10 31/23/7 32/24/7 
f 30/9/8 29/10/8 2/2/1 1/1/1 
f 32/11/7 31/12/7 6/6/3 5/5/3 
# 16 polygons

