# 3ds Max Wavefront OBJ Exporter v0.97b - (c)2007 guruware
# File Created: 02.07.2017 22:13:43

mtllib magic_workbench.mtl

#
# object Box001
#

v  0.0000 0.7500 0.0000
v  1.0000 0.7500 0.0000
v  1.0000 0.7500 1.0000
v  0.0000 0.7500 1.0000
v  1.0000 1.0000 1.0000
v  1.0000 1.0000 -0.0000
v  0.0000 1.0000 -0.0000
v  0.0000 1.0000 1.0000
v  2.0000 0.7500 1.0000
v  2.0000 0.7500 0.0000
v  2.0000 1.0000 -0.0000
v  2.0000 1.0000 1.0000
v  0.0625 0.0000 0.6875
v  0.3125 0.0000 0.6875
v  0.3125 0.0000 0.9375
v  0.0625 0.0000 0.9375
v  0.0625 0.7500 0.9375
v  0.0625 0.7500 0.6875
v  0.3125 0.7500 0.9375
v  0.3125 0.7500 0.6875
v  0.1250 0.1250 0.6875
v  0.1250 0.1250 0.3125
v  0.2500 0.1250 0.3125
v  0.2500 0.1250 0.6875
v  0.2500 0.2500 0.3125
v  0.2500 0.2500 0.6875
v  0.1250 0.2500 0.3125
v  0.1250 0.2500 0.6875
v  0.3125 0.0000 0.3125
v  0.0625 0.0000 0.3125
v  0.0625 0.0000 0.0625
v  0.3125 0.0000 0.0625
v  0.3125 0.7500 0.0625
v  0.3125 0.7500 0.3125
v  0.0625 0.7500 0.0625
v  0.0625 0.7500 0.3125
v  1.7500 0.1250 0.6875
v  1.7500 0.1250 0.3125
v  1.8750 0.1250 0.3125
v  1.8750 0.1250 0.6875
v  1.8750 0.2500 0.3125
v  1.8750 0.2500 0.6875
v  1.7500 0.2500 0.3125
v  1.7500 0.2500 0.6875
v  1.6875 0.0000 0.0625
v  1.9375 0.0000 0.0625
v  1.9375 0.0000 0.3125
v  1.6875 0.0000 0.3125
v  1.6875 0.7500 0.3125
v  1.6875 0.7500 0.0625
v  1.9375 0.7500 0.3125
v  1.9375 0.7500 0.0625
v  1.9375 0.0000 0.9375
v  1.6875 0.0000 0.9375
v  1.6875 0.0000 0.6875
v  1.9375 0.0000 0.6875
v  1.9375 0.7500 0.6875
v  1.9375 0.7500 0.9375
v  1.6875 0.7500 0.6875
v  1.6875 0.7500 0.9375
# 60 vertices

vn 0.0000 -1.0000 -0.0000
vn 0.0000 1.0000 -0.0000
vn 0.0000 0.0000 1.0000
vn 1.0000 0.0000 -0.0000
vn 0.0000 -0.0000 -1.0000
vn -1.0000 0.0000 -0.0000
vn -1.0000 0.0000 0.0000
vn -0.0000 0.0000 -1.0000
vn 0.0000 1.0000 0.0000
vn 0.0000 0.0000 -1.0000
# 10 vertex normals

vt 1.0000 1.0000 0.7500
vt -0.0000 1.0000 0.7500
vt 0.0000 0.0000 0.7500
vt 1.0000 0.0000 0.7500
vt 1.0000 0.0000 1.0000
vt 1.0000 1.0000 1.0000
vt 0.0000 1.0000 1.0000
vt -0.0000 0.0000 1.0000
vt 1.0000 0.7500 0.0000
vt 1.0000 1.0000 0.0000
vt -0.0000 1.0000 0.0000
vt -0.0000 0.7500 0.0000
vt -0.0000 0.7500 2.0000
vt 1.0000 0.7500 2.0000
vt 1.0000 1.0000 2.0000
vt -0.0000 1.0000 2.0000
vt 1.0000 0.7500 1.0000
vt 0.0000 0.7500 1.0000
vt 0.0000 0.7500 0.0000
vt 1.0000 0.7500 -0.0000
vt 1.0000 1.0000 -0.0000
vt 0.0000 1.0000 0.0000
vt 0.6250 0.2500 0.0000
vt 0.3750 0.2500 0.0000
vt 0.3750 -0.0000 0.0000
vt 0.6250 -0.0000 0.0000
vt 0.7500 0.2500 0.0625
vt 1.0000 0.2500 0.0625
vt 1.0000 1.0000 0.0625
vt 0.7500 1.0000 0.0625
vt -0.0000 0.2500 0.0625
vt 0.2500 0.2500 0.0625
vt 0.2500 1.0000 0.0625
vt -0.0000 1.0000 0.0625
vt 0.2500 0.2500 0.3125
vt 0.5000 0.2500 0.3125
vt 0.5000 1.0000 0.3125
vt 0.2500 1.0000 0.3125
vt 0.0000 0.2500 0.3125
vt 0.0000 1.0000 0.3125
vt 0.0000 -0.0000 0.1250
vt 0.3750 -0.0000 0.1250
vt 0.3750 0.1250 0.1250
vt 0.0000 0.1250 0.1250
vt 0.6250 0.1250 0.2500
vt 1.0000 0.1250 0.2500
vt 1.0000 0.2500 0.2500
vt 0.6250 0.2500 0.2500
vt 0.6250 -0.0000 0.2500
vt 1.0000 -0.0000 0.2500
vt 1.0000 0.2500 0.1250
vt 0.6250 0.2500 0.1250
vt 0.6250 0.1250 0.1250
vt 1.0000 0.1250 0.1250
vt 0.7500 0.2500 0.3125
vt 1.0000 0.2500 0.3125
vt 1.0000 1.0000 0.3125
vt 0.7500 1.0000 0.3125
vt 0.5000 0.2500 0.9375
vt 0.7500 0.2500 0.9375
vt 0.7500 1.0000 0.9375
vt 0.5000 1.0000 0.9375
vt 0.5000 0.2500 0.0625
vt 0.5000 1.0000 0.0625
vt 0.5000 0.2500 0.6875
vt 0.7500 0.2500 0.6875
vt 0.7500 1.0000 0.6875
vt 0.5000 1.0000 0.6875
vt -0.0000 0.1250 0.1250
vt 0.3750 0.2500 0.1250
vt -0.0000 0.2500 0.1250
vt 0.6250 0.0000 1.8750
vt 1.0000 0.0000 1.8750
vt 1.0000 0.1250 1.8750
vt 0.6250 0.1250 1.8750
vt -0.0000 0.1250 0.2500
vt 0.3750 0.1250 0.2500
vt 0.3750 0.2500 0.2500
vt -0.0000 0.2500 0.2500
vt 0.3750 0.1250 1.7500
vt 0.0000 0.1250 1.7500
vt 0.0000 -0.0000 1.7500
vt 0.3750 -0.0000 1.7500
vt 0.7500 0.2500 1.6875
vt 1.0000 0.2500 1.6875
vt 1.0000 1.0000 1.6875
vt 0.7500 1.0000 1.6875
vt 0.7500 0.2500 1.9375
vt 1.0000 0.2500 1.9375
vt 1.0000 1.0000 1.9375
vt 0.7500 1.0000 1.9375
vt -0.0000 0.2500 0.9375
vt 0.2500 0.2500 0.9375
vt 0.2500 1.0000 0.9375
vt -0.0000 1.0000 0.9375
vt 0.3750 0.0000 0.0000
vt 0.6250 0.0000 0.0000
vt 0.2500 0.2500 1.9375
vt 0.5000 0.2500 1.9375
vt 0.5000 1.0000 1.9375
vt 0.2500 1.0000 1.9375
vt -0.0000 0.2500 0.3125
vt -0.0000 1.0000 0.3125
vt 0.2500 0.2500 1.6875
vt 0.5000 0.2500 1.6875
vt 0.5000 1.0000 1.6875
vt 0.2500 1.0000 1.6875
vt 0.0000 1.0000 0.7500
vt 0.0000 0.0000 1.0000
vt -0.0000 1.0000 1.0000
vt -0.0000 0.7500 1.0000
# 111 texture coords

g Box001
usemtl magic_workbench_05
f 1/1/1 2/2/1 3/3/1 4/4/1 
usemtl magic_workbench_01
f 5/5/2 6/6/2 7/7/2 8/8/2 
usemtl magic_workbench_03
f 3/9/3 5/10/3 8/11/3 4/12/3 
f 9/13/4 10/14/4 11/15/4 12/16/4 
f 2/17/5 6/6/5 11/7/5 10/18/5 
f 1/19/6 4/20/6 8/21/6 7/22/6 
usemtl magic_workbench_06
f 13/23/1 14/24/1 15/25/1 16/26/1 
f 13/27/7 16/28/7 17/29/7 18/30/7 
f 16/31/3 15/32/3 19/33/3 17/34/3 
f 15/35/4 14/36/4 20/37/4 19/38/4 
f 14/39/8 13/35/8 18/38/8 20/40/8 
f 21/41/1 22/42/1 23/43/1 24/44/1 
f 24/45/4 23/46/4 25/47/4 26/48/4 
f 26/49/9 25/50/9 27/46/9 28/45/9 
f 28/51/6 27/52/6 22/53/6 21/54/6 
f 29/25/1 30/26/1 31/23/1 32/24/1 
f 29/55/4 32/56/4 33/57/4 34/58/4 
f 32/59/10 31/60/10 35/61/10 33/62/10 
f 31/32/6 30/63/6 36/64/6 35/33/6 
f 30/65/3 29/66/3 34/67/3 36/68/3 
f 37/69/1 38/43/1 39/70/1 40/71/1 
f 40/72/4 39/73/4 41/74/4 42/75/4 
f 42/76/9 41/77/9 43/78/9 44/79/9 
f 44/80/6 43/81/6 38/82/6 37/83/6 
f 45/23/1 46/24/1 47/25/1 48/26/1 
f 45/84/7 48/85/7 49/86/7 50/87/7 
f 48/65/3 47/66/3 51/67/3 49/68/3 
f 47/88/4 46/89/4 52/90/4 51/91/4 
f 46/92/8 45/93/8 50/94/8 52/95/8 
f 53/96/1 54/97/1 55/23/1 56/24/1 
f 53/98/4 56/99/4 57/100/4 58/101/4 
f 56/102/10 55/35/10 59/38/10 57/103/10 
f 55/104/6 54/105/6 60/106/6 59/107/6 
f 54/63/3 53/27/3 58/30/3 60/64/3 
usemtl magic_workbench_04
f 10/108/1 9/3/1 3/4/1 2/1/1 
usemtl magic_workbench_02
f 12/5/2 11/6/2 6/7/2 5/109/2 
usemtl magic_workbench_03
f 9/20/3 12/21/3 5/22/3 3/19/3 
f 1/17/5 7/6/5 6/110/5 2/111/5 
# 38 polygons

